<svg width="300" height="300" xmlns="http://www.w3.org/2000/svg">
  <defs>
    <pattern id="circuit" width="300" height="300" patternUnits="userSpaceOnUse">
      <!-- Horizontal lines -->
      <path d="M 0 50 L 300 50" stroke="rgba(0, 191, 255, 0.1)" stroke-width="1" fill="none"/>
      <path d="M 0 150 L 300 150" stroke="rgba(157, 0, 255, 0.1)" stroke-width="1" fill="none"/>
      <path d="M 0 250 L 300 250" stroke="rgba(255, 0, 214, 0.1)" stroke-width="1" fill="none"/>
      
      <!-- Vertical lines -->
      <path d="M 50 0 L 50 300" stroke="rgba(0, 191, 255, 0.1)" stroke-width="1" fill="none"/>
      <path d="M 150 0 L 150 300" stroke="rgba(157, 0, 255, 0.1)" stroke-width="1" fill="none"/>
      <path d="M 250 0 L 250 300" stroke="rgba(255, 0, 214, 0.1)" stroke-width="1" fill="none"/>
      
      <!-- Circuit nodes -->
      <circle cx="50" cy="50" r="4" fill="rgba(0, 191, 255, 0.2)"/>
      <circle cx="150" cy="50" r="4" fill="rgba(0, 191, 255, 0.2)"/>
      <circle cx="250" cy="50" r="4" fill="rgba(0, 191, 255, 0.2)"/>
      <circle cx="50" cy="150" r="4" fill="rgba(157, 0, 255, 0.2)"/>
      <circle cx="150" cy="150" r="4" fill="rgba(157, 0, 255, 0.2)"/>
      <circle cx="250" cy="150" r="4" fill="rgba(157, 0, 255, 0.2)"/>
      <circle cx="50" cy="250" r="4" fill="rgba(255, 0, 214, 0.2)"/>
      <circle cx="150" cy="250" r="4" fill="rgba(255, 0, 214, 0.2)"/>
      <circle cx="250" cy="250" r="4" fill="rgba(255, 0, 214, 0.2)"/>
      
      <!-- Circuit connections -->
      <path d="M 50 50 L 100 50 L 100 100 L 150 100 L 150 150" stroke="rgba(0, 191, 255, 0.15)" stroke-width="2" fill="none"/>
      <path d="M 250 50 L 200 50 L 200 100 L 150 100" stroke="rgba(0, 191, 255, 0.15)" stroke-width="2" fill="none"/>
      <path d="M 50 150 L 100 150 L 100 200 L 150 200 L 150 250" stroke="rgba(157, 0, 255, 0.15)" stroke-width="2" fill="none"/>
      <path d="M 250 150 L 200 150 L 200 200 L 150 200" stroke="rgba(157, 0, 255, 0.15)" stroke-width="2" fill="none"/>
      <path d="M 50 250 L 100 250 L 100 200" stroke="rgba(255, 0, 214, 0.15)" stroke-width="2" fill="none"/>
      <path d="M 250 250 L 200 250 L 200 200" stroke="rgba(255, 0, 214, 0.15)" stroke-width="2" fill="none"/>
    </pattern>
  </defs>
  <rect width="100%" height="100%" fill="url(#circuit)" />
</svg>